OpenSim_Sub01_CSStiffKnee_GRF.mot
version=1
nRows=57
nColumns=19
inDegrees=no
endheader
time	lFx	lFy	lFz	lCOPx	lCOPy	lCOPz	rFx	rFy	rFz	rCOPx	rCOPy	rCOPz	lMx	lMy	lMz	rMx	rMy	rMz
13.45000000	-3.86802343	234.98304518	4.48939612	1.03258767	0	-0.65929281	58.62462315	539.19586608	-31.94315399	0.78269656	0	-0.42930266	0	-0.64992467	0	0	3.68468525	-0.00000000
13.46000000	-11.04908675	294.93474546	5.61189990	1.02456080	0	-0.65254066	62.23189314	516.71151446	-28.90808000	0.77635034	0	-0.42957912	0	0.99722512	0	0	3.47774466	0
13.47000000	-18.61372727	340.66951046	6.96591434	1.01413421	0	-0.64461390	64.86785040	488.41372455	-24.97269534	0.76989720	0	-0.42992420	0	2.22688545	0	0	3.20278507	0
13.48000000	-23.48386123	369.10398950	8.89077175	1.00743872	0	-0.64009969	66.14716888	454.50006288	-20.49230839	0.76340601	0	-0.43026804	0	2.84823531	0	0	2.87471783	-0.00000000
13.49000000	-26.08150559	383.16778426	12.04726517	1.00342928	0	-0.63865571	65.59275049	415.81907478	-15.98606373	0.75697024	0	-0.43046243	0	2.72012924	0	0	2.47651910	0.00000000
13.50000000	-26.56923883	389.39777399	16.38575888	0.99972344	0	-0.63879832	62.86739061	373.05809002	-11.72234203	0.75071751	0	-0.43049815	0	2.05584207	0	0	1.99147250	0.00000000
13.51000000	-25.61211688	393.88842009	21.29943764	0.99577709	0	-0.63937957	57.74379318	326.98967108	-8.02321968	0.74550562	0	-0.43053939	0	1.15865356	0	0	1.48335992	0.00000000
13.52000000	-24.15393888	400.36041204	25.62620717	0.99181568	0	-0.63987323	50.03256263	278.59014724	-5.19098750	0.74268428	0	-0.43115269	0	0.37905073	0	0	0.98199357	0.00000000
13.53000000	-22.44652005	410.60441570	28.50382677	0.98789878	0	-0.64016261	39.61951934	229.50052618	-3.39135218	0.74423479	0	-0.43325023	0	0.03776438	0	0	0.51710688	-0.00000000
13.54000000	-20.08058931	425.88885364	30.05084121	0.98372685	0	-0.64026886	26.73179886	181.94913468	-2.70900738	0.75062218	0	-0.43740215	0	0.17015060	0	0	0.18600657	-0.00000000
13.55000000	-16.74000351	447.00071137	30.87659828	0.97886820	0	-0.64023463	12.29842924	138.40302048	-2.79040649	0.75651849	0	-0.44134941	0	0.63269375	0	0	0.01761558	0.00000000
13.56000000	-12.64388352	473.66912779	31.62901242	0.97324967	0	-0.64016235	-1.80928105	101.01912907	-3.14612669	0.74539931	0	-0.43616977	0	1.27708556	0	0	-0.01660162	-0.00000000
13.57000000	-8.33261953	504.16384956	33.14068367	0.96701638	0	-0.64019036	-13.10048062	70.76222727	-3.40286971	0.68689286	0	-0.40368634	0	1.85642656	0	0	0.03237051	0.00000000
13.58000000	-4.22625212	535.79510336	36.14275163	0.96039966	0	-0.64042200	-19.01397061	46.84249622	-3.19054395	0.54659665	0	-0.32097380	0	2.07495040	0	0	0.07929993	0
13.59000000	-0.53519146	565.73032805	40.47861424	0.95381563	0	-0.64084134	-18.09298245	27.56544443	-2.42468010	0.32541088	0	-0.18827318	0	1.81116636	0	0	0.02057856	0.00000000
13.60000000	2.60898401	592.10197697	45.23526248	0.94762793	0	-0.64132198	-11.69453055	12.48136342	-1.49929911	0.12214518	0	-0.06903474	0	1.19002039	0	0	-0.00965725	0.00000000
13.61000000	5.29670573	614.02731824	49.46326236	0.94186531	0	-0.64173912	-4.82953435	2.97414962	-0.60389913	0.01271519	0	-0.00603780	0	0.49279765	0	0	-0.01321738	0.00000000
13.62000000	7.63719592	630.70781392	52.52036054	0.93641869	0	-0.64200841	-0.87383889	-0.91764655	-0.10695687	-0.02195511	0	0.01333532	0	-0.04534262	0	0	-0.00811548	0.00000000
13.63000000	9.66237872	641.37126062	54.13074077	0.93117388	0	-0.64209182	0.49385252	-1.55265342	-0.09277656	-0.02106418	0	0.01234973	0	-0.36577097	0	0	-0.00306095	0.00000000
13.64000000	11.33066890	646.28852656	54.31597283	0.92616182	0	-0.64203869	0.56011719	-1.11638247	-0.11084519	-0.01120218	0	0.00644556	0	-0.49937557	0	0	-0.00032900	-0.00000000
13.65000000	12.63265002	646.73084329	53.43787227	0.92128132	0	-0.64188458	0.25880857	-0.65948323	-0.15146192	-0.00348158	0	0.00194267	0	-0.47203562	0	0	0.00054183	0.00000000
13.66000000	13.50199843	644.35471451	52.15065634	0.91649550	0	-0.64167593	-0.00813825	-0.38757724	-0.28072166	0.00014571	0	-0.00013271	0	-0.37476882	0	0	0.00052386	-0.00000000
13.67000000	13.77162948	640.12934395	50.97206053	0.91195211	0	-0.64145249	-0.15888103	-0.19300768	-0.32203111	0.00103571	0	-0.00061938	0	-0.33533126	0	0	0.00027970	0.00000000
13.68000000	13.31907094	634.26831850	49.98138955	0.90793829	0	-0.64121544	-0.21761427	-0.12384764	-0.33844017	0.00079707	0	-0.00046465	0	-0.38766199	0	0	0.00008747	0.00000000
13.69000000	12.29057482	627.40034581	49.16817381	0.90452379	0	-0.64098804	-0.19938299	-0.17034226	-0.34907906	0.00036985	0	-0.00021148	0	-0.55051292	0	0	-0.00000320	-0.00000000
13.70000000	11.07464662	620.87800632	48.53085466	0.90135425	0	-0.64080698	-0.15077127	-0.22463651	-0.32078875	0.00008815	0	-0.00004806	0	-0.79001155	0	0	-0.00002565	0.00000000
13.71000000	9.95054259	616.02765257	47.98414447	0.89807163	0	-0.64067877	-0.10818155	-0.22515293	-0.31386903	-0.00002642	0	0.00001700	0	-1.02341627	0	0	-0.00001985	0.00000000
13.72000000	8.95298946	613.58382726	47.38027697	0.89471928	0	-0.64062878	-0.08664143	-0.14807767	-0.26348120	-0.00004456	0	0.00002639	0	-1.17616966	0	0	-0.00000925	-0.00000000
13.73000000	7.86393834	613.20957376	46.63099754	0.89146084	0	-0.64064982	-0.03644742	-0.04591156	-0.19116485	-0.00002899	0	0.00001681	0	-1.23491954	0	0	-0.00000223	0.00000000
13.74000000	6.69445238	613.65075207	45.83359210	0.88823289	0	-0.64065748	-0.00317980	-0.01827092	-0.18582562	-0.00001166	0	0.00000661	0	-1.24844725	0	0	0.00000064	0.00000000
13.75000000	5.71120565	613.72695488	45.11355050	0.88484465	0	-0.64057254	-0.02273117	-0.04244024	-0.18444911	-0.00000182	0	0.00000092	0	-1.28368362	0	0	0.00000112	-0.00000000
13.76000000	5.25708666	613.05943644	44.50314210	0.88121431	0	-0.64043378	-0.05941546	-0.07103541	-0.18760568	0.00000153	0	-0.00000097	0	-1.37441649	0	0	0.00000080	-0.00000000
13.77000000	5.33787354	611.74167839	44.07101294	0.87739839	0	-0.64032364	-0.04092892	-0.13966262	-0.22761781	0.00000172	0	-0.00000103	0	-1.51389680	0	0	0.00000047	0.00000000
13.78000000	5.87672348	609.74070296	44.00501045	0.87324752	0	-0.64022168	-0.01715296	-0.17523142	-0.25397092	0.00000127	0	-0.00000068	0	-1.70811774	0	0	0.00000028	0.00000000
13.79000000	6.82918928	607.07499668	44.37640432	0.86867024	0	-0.64010364	-0.01884517	-0.13866238	-0.25917234	0.00000142	0	-0.00000059	0	-1.97658898	0	0	0.00000001	0.00000000
13.80000000	8.23133395	604.28233968	45.05507126	0.86362644	0	-0.63997685	-0.03213888	-0.14251296	-0.31113022	0.00000235	0	-0.00000088	0	-2.31516599	0	0	-0.00000079	0.00000000
13.81000000	9.99424340	602.39175660	45.88006354	0.85826949	0	-0.63985136	-0.05207653	-0.21359799	-0.36159476	0.00000297	0	-0.00000113	0	-2.69496347	0	0	-0.00000251	0.00000000
13.82000000	12.04027954	602.56422264	46.63979930	0.85256728	0	-0.63974636	-0.07288749	-0.29249064	-0.40101715	0.00000040	0	-0.00000021	0	-3.00838234	0	0	-0.00000478	-0.00000000
13.83000000	14.41972859	605.61814068	47.14759653	0.84659119	0	-0.63969312	-0.09017132	-0.27929484	-0.45764974	-0.00001018	0	0.00000372	0	-3.16007104	0	0	-0.00000517	0.00000000
13.84000000	17.15278853	611.39986687	47.32678063	0.84053588	0	-0.63968933	-0.11206087	-0.20832157	-0.44742216	-0.00003281	0	0.00001227	0	-3.16454696	0	0	0.00000227	0.00000000
13.85000000	20.08929065	618.77509874	47.22797589	0.83464916	0	-0.63972014	-0.12517866	-0.21444067	-0.40830322	-0.00006187	0	0.00002349	0	-3.04106715	0	0	0.00002655	-0.00000000
13.86000000	22.89060209	626.24597418	47.07335005	0.82897076	0	-0.63975657	-0.11330656	-0.25865173	-0.41526330	-0.00006488	0	0.00002535	0	-2.85729278	0	0	0.00007258	0.00000000
13.87000000	25.57159744	632.71275839	46.91647953	0.82330370	0	-0.63977808	-0.09772675	-0.23530488	-0.42063344	0.00003616	0	-0.00001151	0	-2.68246932	0	0	0.00012137	-0.00000000
13.88000000	28.36733728	638.10373062	46.62362711	0.81757298	0	-0.63979461	-0.07168507	-0.11658595	-0.41650333	0.00035663	0	-0.00013136	0	-2.53190468	0	0	0.00009601	0.00000000
13.89000000	31.49327738	642.90029906	46.21753170	0.81176509	0	-0.63982818	-0.02291621	0.08768436	-0.46490747	0.00095376	0	-0.00035816	0	-2.40430836	0	0	-0.00016651	-0.00000000
13.90000000	34.90898137	647.06782504	45.93240194	0.80581855	0	-0.63988504	0.07330684	0.24352001	-0.49012103	0.00156515	0	-0.00059745	0	-2.33496676	0	0	-0.00087340	-0.00000000
13.91000000	38.50438939	649.89198058	45.92786667	0.79944387	0	-0.63995160	0.18055081	0.22826299	-0.45886271	0.00117103	0	-0.00046944	0	-2.33423971	0	0	-0.00204023	0.00000000
13.92000000	42.08824760	650.54967102	46.15101397	0.79266609	0	-0.64000339	0.28881900	-0.03056732	-0.42510254	-0.00235285	0	0.00082953	0	-2.37970555	0	0	-0.00292896	0.00000000
13.93000000	45.44250909	648.80886617	46.35914984	0.78570151	0	-0.63997375	0.26856967	-0.62360912	-0.41406190	-0.01163745	0	0.00431746	0	-2.43272842	0	0	-0.00122297	0.00000000
13.94000000	48.32856547	645.33414086	46.29547460	0.77882559	0	-0.63979698	-0.27621228	-1.69857706	-0.39913368	-0.02667566	0	0.01006105	0	-2.46344029	0	0	0.00736535	-0.00000000
13.95000000	50.68016626	640.94192511	45.72742425	0.77215554	0	-0.63946356	-1.84309108	-2.77827970	-0.42142744	-0.03746935	0	0.01440407	0	-2.42808998	0	0	0.02716696	0.00000000
13.96000000	52.74700445	635.89970625	44.57166401	0.76562965	0	-0.63902047	-4.58049558	-1.75203640	-0.50131223	-0.01346267	0	0.00590978	0	-2.32777311	0	0	0.05517147	-0.00000000
13.97000000	54.74672470	629.82629860	42.84717811	0.75902587	0	-0.63858068	-7.47740546	6.03043778	-0.54793972	0.10089887	0	-0.03654132	0	-2.12814607	0	0	0.06574810	0
13.98000000	56.62057656	621.85004646	40.53986712	0.75229853	0	-0.63824556	-8.01827031	28.32646525	-0.46155327	0.35968465	0	-0.13418408	0	-1.78333340	0	0	-0.00808926	0.00000000
13.99000000	58.14787096	611.05788370	37.66244434	0.74549395	0	-0.63808801	-3.73513908	73.34548539	-0.14302816	0.71949580	0	-0.27229992	0	-1.29831649	0	0	-0.26631296	0.00000000
14	59.32509596	596.46802781	34.20143580	0.73858400	0	-0.63815387	1.62377459	141.40506292	0.28553620	0.99539962	0	-0.37845198	0	-0.69742229	0	0	-0.62113974	-0.00000000
14.01000000	60.18648931	577.17512982	30.32448143	0.73161448	0	-0.63843541	-0.65951926	220.73984953	0.45605491	1.12315832	0	-0.42713983	0	-0.06349114	0	0	-0.85982706	0.00000000
